<svg width="24" height="24" viewBox="0 0 24 24" fill="none" xmlns="http://www.w3.org/2000/svg">
<mask id="mask0_2501_5023" style="mask-type:luminance" maskUnits="userSpaceOnUse" x="0" y="0" width="24" height="24">
<path d="M0 0H24V24H0V0Z" fill="white"/>
</mask>
<g mask="url(#mask0_2501_5023)">
<path d="M21.1768 6.01605L15.4125 0.251786C15.2518 0.0910715 15.0349 0 14.8072 0H3.42862C2.95451 0 2.57147 0.383036 2.57147 0.857145V23.1429C2.57147 23.617 2.95451 24 3.42862 24H20.5715C21.0456 24 21.4286 23.617 21.4286 23.1429V6.6241C21.4286 6.39645 21.3375 6.1768 21.1768 6.01605ZM19.4518 7.01785H14.4108V1.97678L19.4518 7.01785ZM19.5 22.0714H4.50004V1.92857H12.5893V7.7143C12.5893 8.02495 12.6992 8.2901 12.9188 8.5098C13.1385 8.72945 13.4037 8.8393 13.7143 8.8393H19.5V22.0714ZM11.7858 14.8393H6.85719C6.73933 14.8393 6.6429 14.9357 6.6429 15.0535V16.3393C6.6429 16.4571 6.73933 16.5536 6.85719 16.5536H11.7858C11.9036 16.5536 12 16.4571 12 16.3393V15.0535C12 14.9357 11.9036 14.8393 11.7858 14.8393ZM6.6429 11.4107V12.6965C6.6429 12.8143 6.73933 12.9107 6.85719 12.9107H17.1429C17.2608 12.9107 17.3572 12.8143 17.3572 12.6965V11.4107C17.3572 11.2928 17.2608 11.1965 17.1429 11.1965H6.85719C6.73933 11.1965 6.6429 11.2928 6.6429 11.4107Z" fill="#5856D6"/>
</g>
</svg>
