<svg width="24" height="24" viewBox="0 0 24 24" fill="none" xmlns="http://www.w3.org/2000/svg">
<mask id="mask0_2501_5094" style="mask-type:luminance" maskUnits="userSpaceOnUse" x="0" y="0" width="24" height="24">
<path d="M0 0H24V24H0V0Z" fill="white"/>
</mask>
<g mask="url(#mask0_2501_5094)">
<mask id="mask1_2501_5094" style="mask-type:luminance" maskUnits="userSpaceOnUse" x="0" y="0" width="24" height="24">
<path d="M0 0H24V24H0V0Z" fill="white"/>
</mask>
<g mask="url(#mask1_2501_5094)">
<path d="M21.8566 3.21568H17.3566V1.50139C17.3566 1.38354 17.2602 1.28711 17.1423 1.28711H15.6423C15.5245 1.28711 15.428 1.38354 15.428 1.50139V3.21568H8.57086V1.50139C8.57086 1.38354 8.47446 1.28711 8.35661 1.28711H6.85661C6.73871 1.28711 6.64231 1.38354 6.64231 1.50139V3.21568H2.1423C1.66819 3.21568 1.28516 3.59871 1.28516 4.07282V21.8586C1.28516 22.3327 1.66819 22.7157 2.1423 22.7157H21.8566C22.3307 22.7157 22.7137 22.3327 22.7137 21.8586V4.07282C22.7137 3.59871 22.3307 3.21568 21.8566 3.21568ZM20.7852 20.7871H3.21373V10.6086H20.7852V20.7871ZM3.21373 8.78711V5.14425H6.64231V6.42996C6.64231 6.54781 6.73871 6.64426 6.85661 6.64426H8.35661C8.47446 6.64426 8.57086 6.54781 8.57086 6.42996V5.14425H15.428V6.42996C15.428 6.54781 15.5245 6.64426 15.6423 6.64426H17.1423C17.2602 6.64426 17.3566 6.54781 17.3566 6.42996V5.14425H20.7852V8.78711H3.21373Z" fill="#52C41A"/>
</g>
</g>
</svg>
