<svg width="19" height="18" viewBox="0 0 19 18" fill="none" xmlns="http://www.w3.org/2000/svg">
<mask id="mask0_3312_48003" style="mask-type:luminance" maskUnits="userSpaceOnUse" x="0" y="0" width="19" height="18">
<path d="M0.449219 0H18.4492V18H0.449219V0Z" fill="white"/>
</mask>
<g mask="url(#mask0_3312_48003)">
<mask id="mask1_3312_48003" style="mask-type:luminance" maskUnits="userSpaceOnUse" x="0" y="0" width="19" height="18">
<path d="M0.449219 0H18.4492V18H0.449219V0Z" fill="white"/>
</mask>
<g mask="url(#mask1_3312_48003)">
<path d="M6.39119 2.41518H6.23047C6.31886 2.41518 6.39119 2.34286 6.39119 2.25446V2.41518H12.4983V2.25446C12.4983 2.34286 12.5706 2.41518 12.6591 2.41518H12.4983V3.86161H13.9447V2.25446C13.9447 1.54531 13.3682 0.96875 12.6591 0.96875H6.23047C5.52131 0.96875 4.94476 1.54531 4.94476 2.25446V3.86161H6.39119V2.41518ZM16.5162 3.86161H2.37333C2.01775 3.86161 1.73047 4.14889 1.73047 4.50446V5.14734C1.73047 5.23573 1.80279 5.30802 1.89118 5.30802H3.10458L3.60078 15.8147C3.63292 16.4998 4.19944 17.0402 4.88449 17.0402H14.005C14.6921 17.0402 15.2566 16.5018 15.2887 15.8147L15.7849 5.30802H16.9983C17.0867 5.30802 17.1591 5.23573 17.1591 5.14734V4.50446C17.1591 4.14889 16.8718 3.86161 16.5162 3.86161ZM13.8503 15.5938H5.03918L4.55301 5.30802H14.3365L13.8503 15.5938Z" fill="#FF4D4F"/>
</g>
</g>
</svg>
