<svg width="25" height="22" viewBox="0 0 25 22" fill="none" xmlns="http://www.w3.org/2000/svg">
<path d="M19.8072 3.66329C19.9956 3.85662 19.9956 4.16892 19.7973 4.35729C19.604 4.54566 19.2917 4.54566 19.1033 4.34738C17.3286 2.52811 14.9492 1.51189 12.4111 1.48215C9.93257 1.4524 7.58288 2.37443 5.78343 4.06978L6.68563 4.07969C6.95828 4.08465 7.17143 4.30276 7.17143 4.57541C7.16648 4.84309 6.94836 5.06121 6.68068 5.06121H6.67572L4.5838 5.03642C4.31116 5.03147 4.098 4.81335 4.098 4.54071L4.11783 2.45375C4.12279 2.18606 4.3409 1.96795 4.60859 1.96795H4.61355C4.88619 1.9729 5.09935 2.19102 5.09935 2.46366L5.08943 3.37578C7.07725 1.49206 9.67975 0.470889 12.4211 0.500632C15.2268 0.540289 17.8491 1.6606 19.8072 3.66329Z" fill="#38AEE0"/>
<path d="M5.50253 17.6513C7.27719 19.4706 9.65662 20.4868 12.1947 20.5166C14.6733 20.5463 17.0229 19.6243 18.8224 17.9289L17.9202 17.919C17.6475 17.9141 17.4344 17.6959 17.4344 17.4233C17.4393 17.1556 17.6575 16.9375 17.9251 16.9375H17.9301L20.022 16.9623C20.2947 16.9672 20.5078 17.1854 20.5078 17.458L20.483 19.5499C20.4781 19.8176 20.26 20.0357 19.9923 20.0357H19.9873C19.7147 20.0308 19.5015 19.8126 19.5015 19.54L19.5114 18.6279C17.5534 20.4819 15.0054 21.503 12.3037 21.503C12.2641 21.503 12.2195 21.503 12.1798 21.503C9.37902 21.4683 6.75173 20.348 4.79366 18.3453C4.60528 18.152 4.60529 17.8397 4.80357 17.6513C5.00186 17.453 5.3092 17.458 5.50253 17.6513Z" fill="#38AEE0"/>
<path d="M20.4067 10.7637C20.4067 10.6001 20.491 10.4464 20.6248 10.3572C20.7141 10.2977 20.7636 10.1986 20.7636 10.0945V8.30496C20.7636 7.68531 20.263 7.18464 19.6433 7.18464H19.2567C18.637 7.18464 18.1363 7.68531 18.1363 8.30496V10.0945C18.1363 10.1986 18.1909 10.2977 18.2751 10.3572C18.4139 10.4464 18.4933 10.6001 18.4933 10.7637V12.4888C18.4933 12.7069 18.3693 12.9052 18.171 12.9994C17.948 13.1084 16.793 13.6934 15.7222 14.5708C15.6379 14.6402 15.5884 14.7492 15.5884 14.8633V16.0877C15.5884 16.3603 15.3703 16.5784 15.0976 16.5784C14.825 16.5784 14.6069 16.3603 14.6069 16.0877V14.8633C14.6069 14.4568 14.7853 14.0751 15.1026 13.8123C16.0395 13.039 17.0458 12.4789 17.5117 12.236V10.9917C17.2837 10.7538 17.1499 10.4316 17.1499 10.0945V8.30496C17.1499 7.14498 18.0917 6.20312 19.2517 6.20312H19.6384C20.7983 6.20312 21.7402 7.14498 21.7402 8.30496V10.0945C21.7402 10.4316 21.6113 10.7538 21.3783 10.9917V12.236C21.8492 12.4789 22.8506 13.044 23.7875 13.8123C24.0998 14.0701 24.2832 14.4518 24.2832 14.8633V16.0877C24.2832 16.3603 24.0651 16.5784 23.7924 16.5784C23.5198 16.5784 23.3017 16.3603 23.3017 16.0877V14.8633C23.3017 14.7492 23.2521 14.6451 23.1678 14.5708C22.1021 13.6934 20.9421 13.1084 20.719 12.9994C20.5257 12.9052 20.3968 12.7019 20.3968 12.4888V10.7637H20.4067Z" fill="#38AEE0"/>
<path d="M0.495146 13.8202C1.43205 13.0468 2.43835 12.4867 2.90432 12.2438V10.9995C2.67629 10.7616 2.54245 10.4394 2.54245 10.1023V8.31277C2.54245 7.1528 3.4843 6.21094 4.64428 6.21094H5.03094C6.19091 6.21094 7.13277 7.1528 7.13277 8.31277V10.1023C7.13277 10.4394 7.00388 10.7616 6.77089 10.9995V12.2388C7.24182 12.4817 8.24317 13.0468 9.18007 13.8152C9.49237 14.073 9.67578 14.4547 9.67578 14.8661V16.0905C9.67578 16.3632 9.45767 16.5813 9.18502 16.5813C8.91238 16.5813 8.69427 16.3632 8.69427 16.0905V14.8661C8.69427 14.7521 8.64469 14.648 8.56042 14.5736C7.49464 13.6962 6.33466 13.1113 6.11159 13.0022C5.91826 12.908 5.79434 12.7048 5.79434 12.4916V10.7666C5.79434 10.603 5.87861 10.4493 6.01245 10.3601C6.10168 10.3006 6.15125 10.2014 6.15125 10.0973V8.30781C6.15125 7.68817 5.65058 7.1875 5.03094 7.1875H4.64428C4.02463 7.1875 3.52396 7.68817 3.52396 8.30781V10.0973C3.52396 10.2014 3.57849 10.3006 3.66276 10.3601C3.80156 10.4493 3.88088 10.603 3.88088 10.7666V12.4916C3.88088 12.7098 3.75695 12.908 3.56362 13.0022C3.34055 13.1113 2.18058 13.6962 1.11479 14.5736C1.03052 14.643 0.980946 14.7521 0.980946 14.8661V16.0905C0.980946 16.3632 0.762831 16.5813 0.490188 16.5813C0.217545 16.5813 -0.000569344 16.3632 -0.000569344 16.0905V14.8661C0.00438786 14.4596 0.182845 14.0779 0.495146 13.8202Z" fill="#38AEE0"/>
</svg>
